# xmcd
# 
# Track frame offsets:
#     150
#     12415
#     24233
#     38541
#     61091
#     77814
#     89985
#     109636
#     118406
#     132750
#     134051
#     148189
# 
# Disc length: 2166
# 
# Revision: 0
# Processed by: cddbd v1.5.2PL0 Copyright (c) Steve Scherf et al.
# Submitted via: fre:ac v1.0.31
# 
DISCID=a808740c
DTITLE=Tina and Her Pony - Tina and Her Pony
DYEAR=2012
DGENRE=Folk
TTITLE0=Sweet Love
TTITLE1=Far Away
TTITLE2=Little Bird
TTITLE3=Rain and Snow
TTITLE4=Ana Bai
TTITLE5=Never Had You
TTITLE6=I'm So Lonesome
TTITLE7=Winter in the West
TTITLE8=Burning Mother Mary
TTITLE9=Crash and Burn
TTITLE10=Medicine
TTITLE11=Snow Covered Mountains
EXTD=
EXTT0=
EXTT1=
EXTT2=
EXTT3=
EXTT4=
EXTT5=
EXTT6=
EXTT7=
EXTT8=
EXTT9=
EXTT10=
EXTT11=
PLAYORDER=
